<?xml version="1.0" encoding="UTF-8"?>
<!-- Generator: Adobe Illustrator 23.0.5, SVG Export Plug-In . SVG Version: 6.00 Build 0)  -->
<svg version="1.1" id="Capa_1" xmlns="http://www.w3.org/2000/svg" xmlns:xlink="http://www.w3.org/1999/xlink" x="0px" y="0px" viewBox="0 0 228 65" style="enable-background:new 0 0 228 65;" xml:space="preserve">
<style type="text/css">
	.st0{fill-rule:evenodd;clip-rule:evenodd;fill:#B52E31;}
	.st1{fill-rule:evenodd;clip-rule:evenodd;fill:#E23237;}
	.st2{fill-rule:evenodd;clip-rule:evenodd;fill:#FFFFFF;}
</style>
<g>
	<path class="st0" d="M60.78,47.47V18.38h3.74L82.3,41.79V18.38h3.56v29.09h-3.74L64.33,23.83v23.64H60.78z M114.8,46.31   c-2.35,0.88-4.89,1.34-7.57,1.34c-10.53,0-15.79-5.03-15.79-15.15c0-9.56,5.08-14.36,15.24-14.36c2.91,0,5.63,0.42,8.13,1.2v3.23   c-2.49-0.97-5.08-1.43-7.71-1.43c-7.94,0-11.91,3.79-11.91,11.27c0,8.08,3.92,12.1,11.73,12.1c1.25,0,2.63-0.18,4.16-0.51v-9.74   h3.74V46.31L114.8,46.31z M120.81,36.25V18.38h3.74v17.87c0,5.59,2.77,8.4,8.36,8.4c5.54,0,8.36-2.82,8.36-8.4V18.38H145v17.87   c0,7.62-4.02,11.45-12.1,11.45C124.82,47.7,120.81,43.87,120.81,36.25z M155.44,18.38v26.04h15.24v3.05H151.7V18.38L155.44,18.38   L155.44,18.38z M176.08,47.47h-3.92l14.45-32.92l14.45,32.92h-4.16l-3.74-9.14h-9.6l1.02-3.05h7.34l-5.45-13.16L176.08,47.47   L176.08,47.47z M205.08,47.47V18.38h12.42c5.54,0,8.31,2.31,8.31,6.97c0,3.79-2.72,6.6-8.13,8.4l9.97,13.71h-4.94l-9.24-13.07   v-2.45c5.54-0.88,8.36-3,8.36-6.42c0-2.68-1.52-4.02-4.62-4.02h-8.31v25.95L205.08,47.47L205.08,47.47z"/>
</g>
<path class="st1" d="M0.24,11.62L30.02,1l30.57,10.44l-4.94,39.39L30.02,65L4.81,51.01L0.24,11.62z"/>
<path class="st0" d="M60.59,11.44L30.02,1v64l25.63-14.18L60.59,11.44L60.59,11.44z"/>
<path class="st2" d="M30.07,8.48L11.5,49.76l6.93-0.14l3.74-9.33h16.58l4.06,9.42l6.6,0.14L30.07,8.48L30.07,8.48z M30.11,21.73  l6.28,13.11H24.62L30.11,21.73z"/>
<style xmlns="" type="text/css" id="igtranslator-color"/></svg>