<?xml version="1.0" encoding="UTF-8" standalone="no"?>
<svg
   xmlns:dc="http://purl.org/dc/elements/1.1/"
   xmlns:cc="http://creativecommons.org/ns#"
   xmlns:rdf="http://www.w3.org/1999/02/22-rdf-syntax-ns#"
   xmlns:svg="http://www.w3.org/2000/svg"
   xmlns="http://www.w3.org/2000/svg"
   xmlns:sodipodi="http://sodipodi.sourceforge.net/DTD/sodipodi-0.dtd"
   xmlns:inkscape="http://www.inkscape.org/namespaces/inkscape"
   id="svg4525"
   viewBox="0 0 60.183107 17.479937"
   width="516.15698"
   height="149.9137"
   version="1.1"
   sodipodi:docname="javascript.svg"
   inkscape:version="1.0.2 (e86c870879, 2021-01-15)">
  <metadata
     id="metadata14">
    <rdf:RDF>
      <cc:Work
         rdf:about="">
        <dc:format>image/svg+xml</dc:format>
        <dc:type
           rdf:resource="http://purl.org/dc/dcmitype/StillImage" />
        <dc:title></dc:title>
      </cc:Work>
    </rdf:RDF>
  </metadata>
  <defs
     id="defs12">
    <rect
       x="16.00362"
       y="1.6204296"
       width="33.309589"
       height="13.750049"
       id="rect841" />
  </defs>
  <sodipodi:namedview
     pagecolor="#ffffff"
     bordercolor="#666666"
     borderopacity="1"
     objecttolerance="10"
     gridtolerance="10"
     guidetolerance="10"
     inkscape:pageopacity="0"
     inkscape:pageshadow="2"
     inkscape:window-width="5120"
     inkscape:window-height="2771"
     id="namedview10"
     showgrid="false"
     inkscape:zoom="5.12"
     inkscape:cx="28.16322"
     inkscape:cy="4.6232273"
     inkscape:window-x="2880"
     inkscape:window-y="40"
     inkscape:window-maximized="0"
     inkscape:current-layer="svg4525" />
  <style
     id="style2">.st0{fill:#d4b830}.st1,.st2{opacity:.986;fill:#ebebeb;fill-opacity:0;enable-background:new}.st2{fill-opacity:.9216}.st3{fill:#fdd83c}</style>
  <g
     id="g5193"
     transform="matrix(0.05998606,0,0,0.05998606,0.29953266,-6.8024192)">
    <path
       id="path5113"
       class="st0"
       d="M 18.8,375.4 -5,113.4 251.4,113.5 227.8,375.2 123,404.8 Z m 189.7,-14.3 19.9,-224.4 h -105 l 0.8,247.5 z M 113.6,169.6 H 88.1 l -0.3,134.3 -49.5,-13.5 0.1,30.7 75.2,20.3 z"
       style="fill:#0056b3;fill-opacity:1" />
    <path
       id="path5159"
       class="st1"
       d="m 105.2,338.9 c -3.3,-1 -19.6,-5.4 -36.2,-9.9 l -30.1,-8.1 v -15.1 c 0,-14.8 0,-15.1 1.5,-14.6 0.8,0.3 11.8,3.3 24.4,6.8 l 22.9,6.3 0.2,-67 0.2,-67 h 25 v 85.2 c 0,67.7 -0.2,85.2 -0.9,85.2 -0.5,-0.1 -3.7,-0.9 -7,-1.8 z" />
    <path
       id="path5117"
       class="st3"
       d="m 123.4,136.6 h 105 L 208.5,361 123.4,384.1 Z m 79.7,186.8 6.9,-83.9 -51,5.7 v -44.8 l 54.4,-0.2 2.2,-30.6 -82.1,0.4 1.1,111.4 49.6,-8.5 -0.7,24.8 -50,13.3 0.5,30.4 z"
       style="fill:#212529;fill-opacity:1" />
  </g>
  <text
     xml:space="preserve"
     id="text839"
     style="font-style:normal;font-variant:normal;font-weight:bold;font-stretch:normal;font-size:5.28587px;line-height:1;font-family:monospace;-inkscape-font-specification:'monospace Bold';letter-spacing:-0.332954px;white-space:pre;shape-inside:url(#rect841);fill:#212529;fill-opacity:1;stroke:none;"
     transform="matrix(1.5542381,0,0,1.5542381,-8.8526135,1.8618622)"><tspan
       x="16.003906"
       y="5.6371161"><tspan
         style="font-style:normal;font-variant:normal;font-weight:bold;font-stretch:normal;font-size:5.28587px;font-family:monospace;-inkscape-font-specification:'monospace Bold';fill:#212529;fill-opacity:1">Javascript</tspan></tspan></text>
</svg>
