<?xml version="1.0" encoding="UTF-8"?>
<!-- Generator: Adobe Illustrator 23.0.5, SVG Export Plug-In . SVG Version: 6.00 Build 0)  -->
<svg version="1.1" id="Capa_1" xmlns="http://www.w3.org/2000/svg" xmlns:xlink="http://www.w3.org/1999/xlink" x="0px" y="0px" viewBox="0 0 265 66" style="enable-background:new 0 0 265 66;" xml:space="preserve">
<style type="text/css">
	.st0{fill:#10AA50;}
	.st1{fill:#B8C4C2;}
	.st2{fill:#12924F;}
	.st3{fill:#21313C;}
</style>
<path class="st0" d="M28.76,26.66C25.39,11.76,18.35,7.8,16.55,4.99c-0.74-1.24-1.4-2.52-1.96-3.84c-0.09,1.32-0.27,2.16-1.39,3.16  C10.93,6.33,1.34,14.14,0.53,31.07c-0.75,15.78,11.6,25.52,13.24,26.52c1.26,0.62,2.78,0.01,3.53-0.55  C23.25,52.95,31.39,42.06,28.76,26.66"/>
<path class="st1" d="M15.1,49.19c-0.31,3.91-0.53,6.18-1.32,8.41c0,0,0.52,3.72,0.88,7.66h1.29c0.31-2.77,0.78-5.53,1.41-8.25  C15.68,56.19,15.16,52.62,15.1,49.19z"/>
<path class="st2" d="M17.35,57.01L17.35,57.01c-1.69-0.78-2.17-4.43-2.25-7.82c0.42-5.6,0.54-11.23,0.36-16.84  c-0.09-2.95,0.04-27.3-0.73-30.86c0.53,1.21,1.13,2.38,1.81,3.51c1.8,2.81,8.84,6.77,12.21,21.67C31.39,42.03,23.3,52.9,17.35,57.01  z"/>
<path class="st3" d="M206.65,45.28c1.19,0.95,3.57,1.34,5.66,1.34c2.72,0,5.38-0.5,7.98-2.85c2.65-2.41,4.47-6.1,4.47-11.98  c0-5.66-2.15-10.25-6.57-12.93c-2.49-1.57-5.72-2.18-9.4-2.18c-1.06,0-2.15,0.06-2.77,0.34c-0.25,0.2-0.43,0.48-0.51,0.8  c-0.11,1.01-0.11,8.68-0.11,13.21c0,4.65,0,11.13,0.11,11.93c0.06,0.67,0.4,1.86,1.13,2.35 M195.35,14.15  c0.96,0,4.62,0.17,6.32,0.17c3.18,0,5.38-0.17,11.32-0.17c4.98,0,9.18,1.34,12.17,3.92c3.63,3.14,5.57,7.5,5.57,12.82  c0,7.56-3.45,11.93-6.91,14.39c-3.45,2.58-7.93,4.03-14.31,4.03c-3.4,0-9.23-0.11-14.1-0.17h-0.1c-0.23-0.45,0.42-2.19,0.81-2.24  c1.33-0.15,1.68-0.2,2.28-0.45c1.03-0.42,1.27-0.95,1.38-2.79c0.17-3.47,0.11-7.61,0.11-12.32c0-3.36,0.06-9.91-0.06-11.98  c-0.17-1.73-0.9-2.18-2.39-2.52c-1.05-0.22-2.11-0.39-3.18-0.5c-0.11-0.34,0.76-1.86,1.04-2.18"/>
<path class="st3" d="M244.77,16.99c-0.23,0.06-0.51,0.62-0.51,0.9c-0.06,2.02-0.11,7.28-0.11,10.92c0.03,0.14,0.14,0.25,0.28,0.28  c0.73,0.06,2.55,0.11,4.08,0.11c2.15,0,3.4-0.28,4.08-0.62c1.81-0.9,2.65-2.86,2.65-4.98c0-4.87-3.4-6.72-8.44-6.72  c-0.68-0.01-1.36,0.03-2.04,0.11 M257.61,39.39c0-4.93-3.63-7.73-10.25-7.73c-0.28,0-2.39-0.06-2.89,0.06  c-0.17,0.06-0.34,0.17-0.34,0.28c0,3.53-0.06,9.18,0.11,11.42c0.11,0.95,0.8,2.3,1.64,2.69c0.91,0.5,2.94,0.61,4.36,0.61  C254.16,46.72,257.61,44.54,257.61,39.39 M234.54,14.25c0.51,0,2.02,0.17,5.87,0.17c3.62,0,6.57-0.11,10.07-0.11  c4.36,0,10.36,1.57,10.36,8.06c0,3.18-2.26,5.77-5.21,7c-0.17,0.06-0.17,0.17,0,0.22c4.19,1.06,7.87,3.64,7.87,8.57  c0,4.82-3,7.84-7.36,9.74c-2.65,1.18-5.94,1.57-9.28,1.57c-2.55,0-9.37-0.27-13.17-0.22c-0.4-0.17,0.36-1.96,0.7-2.24  c0.87-0.03,1.73-0.16,2.57-0.4c1.36-0.33,1.52-0.77,1.69-2.79c0.11-1.74,0.11-7.95,0.11-12.37c0-6.05,0.06-10.13,0-12.15  c-0.06-1.57-0.62-2.07-1.7-2.35c-0.85-0.17-2.26-0.34-3.4-0.5C233.39,16.15,234.26,14.47,234.54,14.25"/>
<path class="st3" d="M31.45,49.29c-0.15-0.36-0.2-0.75-0.17-1.13c-0.01-0.26,0.05-0.52,0.17-0.76c0.73-0.11,1.46-0.25,2.17-0.44  c1-0.25,1.38-0.8,1.44-2.07c0.16-3.02,0.17-8.68,0.12-12.66V32.1c0-0.43,0-1.01-0.53-1.42c-0.93-0.58-1.94-1.03-3-1.33  c-0.47-0.14-0.74-0.39-0.72-0.68c0.01-0.29,0.31-0.64,0.93-0.76c1.64-0.17,5.94-1.19,7.63-1.97c0.17,0.23,0.25,0.51,0.23,0.8  c0,0.17-0.03,0.36-0.05,0.55c-0.05,0.56-0.1,1.2-0.1,1.84c0.03,0.23,0.24,0.39,0.47,0.36c0.09-0.01,0.17-0.05,0.24-0.12  c3.21-2.52,6.1-3.42,7.57-3.42c2.43,0,4.32,1.16,5.79,3.55c0.07,0.12,0.19,0.19,0.33,0.19c0.12,0,0.24-0.06,0.31-0.16  c2.96-2.24,5.88-3.58,7.85-3.58c4.63,0,7.4,3.47,7.4,9.28c0,1.67-0.02,3.79-0.03,5.76c-0.01,1.73-0.03,3.36-0.03,4.48  c0,0.27,0.37,1.03,0.91,1.18c0.68,0.33,1.66,0.5,2.89,0.71h0.05c0.09,0.33-0.1,1.63-0.29,1.9c-0.31,0-0.73-0.03-1.26-0.05  c-0.96-0.05-2.28-0.11-3.82-0.11c-3.08,0-4.69,0.06-6.23,0.16c-0.12-0.38-0.16-1.62-0.02-1.88c0.64-0.1,1.27-0.24,1.89-0.41  c0.98-0.32,1.26-0.77,1.33-2.07c0.02-0.92,0.2-9.08-0.11-11.01c-0.29-2.01-1.8-4.35-5.11-4.35c-1.23,0-3.21,0.51-5.09,1.94  c-0.12,0.13-0.18,0.3-0.19,0.48v0.04c0.22,1.04,0.22,2.26,0.22,4.11c0,1.06,0,2.17-0.01,3.27c-0.01,2.25-0.02,4.37,0.01,5.97  c0,1.09,0.66,1.35,1.19,1.56c0.29,0.06,0.52,0.12,0.75,0.17c0.44,0.11,0.9,0.22,1.59,0.33c0.1,0.47,0.09,0.95-0.03,1.41  c-0.03,0.17-0.1,0.34-0.2,0.48c-1.71-0.06-3.47-0.11-6.01-0.11c-0.77,0-2.02,0.03-3.13,0.06c-0.9,0.02-1.75,0.05-2.23,0.05  c-0.13-0.31-0.19-0.64-0.17-0.98c-0.03-0.31,0.03-0.63,0.18-0.91l0.68-0.12c0.59-0.11,1.11-0.2,1.59-0.32  c0.84-0.27,1.15-0.72,1.21-1.79c0.16-2.49,0.29-9.67-0.06-11.47c-0.6-2.88-2.24-4.35-4.88-4.35c-1.55,0-3.5,0.74-5.09,1.94  c-0.31,0.3-0.48,0.72-0.47,1.15c0,0.86,0,1.87,0,2.97c0,3.6-0.02,8.09,0.06,10.03c0.05,0.6,0.27,1.31,1.39,1.57  c0.25,0.07,0.67,0.14,1.16,0.22c0.28,0.05,0.59,0.1,0.91,0.16c0.1,0.63,0.05,1.28-0.15,1.9c-0.49,0-1.1-0.03-1.79-0.06  c-1.06-0.05-2.39-0.11-3.88-0.11c-1.77,0-3,0.06-3.99,0.11C32.61,49.26,32.03,49.28,31.45,49.29"/>
<path class="st3" d="M88.29,28.35c-0.96-0.02-1.9,0.24-2.7,0.76c-1.97,1.2-2.97,3.58-2.97,7.09c0,6.57,3.29,11.16,8,11.16  c1.26,0.04,2.49-0.4,3.45-1.22c1.45-1.18,2.22-3.59,2.22-6.97C96.28,32.7,93.07,28.35,88.29,28.35 M89.19,49.79  c-8.51,0-11.54-6.24-11.54-12.08c0-4.08,1.67-7.27,4.96-9.48c2.3-1.43,4.95-2.21,7.66-2.26c6.49,0,11.03,4.67,11.03,11.35  c0,4.54-1.81,8.13-5.24,10.37C94.41,48.7,91.55,49.79,89.19,49.79"/>
<path class="st3" d="M174.9,28.35c-0.96-0.02-1.9,0.24-2.71,0.76c-1.97,1.2-2.97,3.58-2.97,7.09c0,6.57,3.29,11.16,8,11.16  c1.27,0.04,2.5-0.39,3.46-1.22c1.45-1.18,2.21-3.59,2.21-6.97C182.9,32.7,179.69,28.35,174.9,28.35 M175.81,49.79  c-8.51,0-11.54-6.24-11.54-12.08c0-4.08,1.67-7.27,4.96-9.48c2.3-1.43,4.95-2.21,7.65-2.26c6.49,0,11.03,4.67,11.03,11.35  c0,4.55-1.81,8.13-5.24,10.37C181.03,48.7,178.17,49.79,175.81,49.79"/>
<path class="st3" d="M146.26,28.12c-2.62,0-4.32,2.07-4.32,5.27s1.46,7.01,5.57,7.01c0.71,0,1.98-0.31,2.62-1.01  c0.95-0.88,1.59-2.69,1.59-4.6c0-4.18-2.04-6.67-5.44-6.67 M145.93,50.24c-0.74-0.01-1.47,0.17-2.12,0.53  c-2.08,1.33-3.04,2.65-3.04,4.19c0,1.44,0.56,2.59,1.76,3.61c1.46,1.24,3.42,1.84,6.01,1.84c5.09,0,7.37-2.74,7.37-5.44  c0-1.89-0.95-3.15-2.89-3.87C151.52,50.54,149.01,50.24,145.93,50.24 M146.28,63.23c-3.05,0-5.25-0.64-7.13-2.09  c-1.83-1.41-2.65-3.5-2.65-4.95c0.02-0.93,0.38-1.83,1-2.52c0.53-0.6,1.76-1.74,4.61-3.69c0.09-0.04,0.15-0.13,0.15-0.23  c0-0.11-0.07-0.21-0.18-0.23c-2.35-0.9-3.05-2.39-3.27-3.18c0-0.03,0-0.07-0.02-0.12c-0.07-0.31-0.13-0.61,0.3-0.91  c0.33-0.23,0.85-0.55,1.42-0.88c0.79-0.44,1.55-0.93,2.28-1.48c0.14-0.15,0.13-0.39-0.02-0.53c-0.02-0.02-0.05-0.04-0.08-0.05  c-3.47-1.17-5.22-3.75-5.22-7.69c-0.02-2.49,1.18-4.84,3.21-6.29c1.4-1.11,4.9-2.43,7.17-2.43h0.13c2.34,0.06,3.65,0.55,5.48,1.22  c1.04,0.38,2.14,0.55,3.24,0.51c1.93,0,2.78-0.61,3.5-1.33c0.12,0.32,0.18,0.66,0.19,1c0.04,0.81-0.18,1.62-0.63,2.3  c-0.39,0.55-1.33,0.95-2.18,0.95c-0.09,0-0.17,0-0.27-0.01c-0.45-0.03-0.89-0.11-1.33-0.22l-0.22,0.08  c-0.07,0.1-0.02,0.21,0.03,0.36c0.01,0.03,0.02,0.06,0.03,0.09c0.16,0.71,0.26,1.42,0.32,2.15c0,4.12-1.62,5.92-3.38,7.25  c-1.7,1.27-3.72,2.06-5.83,2.26l0,0c-0.05,0-0.27,0.02-0.68,0.06c-0.27,0.02-0.61,0.06-0.66,0.06h-0.05  c-0.38,0.11-1.38,0.58-1.38,1.46c0,0.73,0.45,1.64,2.61,1.8l1.39,0.1c2.84,0.2,6.39,0.45,8.06,1.01c2.27,0.8,3.78,2.96,3.73,5.37  c0,3.7-2.63,7.17-7.03,9.3c-2.08,0.99-4.35,1.5-6.65,1.49"/>
<path class="st3" d="M133.26,47.32c-1.25-0.17-2.15-0.34-3.23-0.84c-0.21-0.22-0.35-0.5-0.4-0.8c-0.11-1.74-0.11-6.77-0.11-10.07  c0-2.69-0.45-5.04-1.59-6.72c-1.36-1.91-3.28-3.02-5.78-3.02c-2.21,0-5.15,1.51-7.59,3.58c-0.06,0.06-0.43,0.41-0.42-0.14  c0.01-0.55,0.09-1.67,0.15-2.39c0.05-0.39-0.09-0.77-0.37-1.04c-1.59,0.8-6.05,1.86-7.7,2.02c-1.2,0.23-1.51,1.39-0.22,1.79h0.02  c1.03,0.28,2.01,0.72,2.92,1.28c0.51,0.39,0.45,0.95,0.45,1.4c0.06,3.75,0.06,9.52-0.11,12.65c-0.06,1.23-0.4,1.68-1.3,1.91  l0.08-0.03c-0.69,0.17-1.39,0.3-2.1,0.39c-0.28,0.28-0.28,1.9,0,2.24c0.57,0,3.45-0.17,5.83-0.17c3.28,0,4.98,0.17,5.83,0.17  c0.34-0.39,0.45-1.9,0.23-2.24c-0.78-0.04-1.56-0.15-2.32-0.34c-0.9-0.22-1.13-0.67-1.19-1.68c-0.11-2.63-0.11-8.23-0.11-12.04  c0-1.06,0.28-1.57,0.62-1.86c1.13-1.01,3-1.68,4.64-1.68c1.59,0,2.65,0.5,3.45,1.17c0.93,0.81,1.51,1.94,1.62,3.16  c0.23,2.12,0.17,6.38,0.17,10.07c0,2.02-0.17,2.52-0.9,2.75c-0.34,0.17-1.25,0.34-2.32,0.45c-0.34,0.34-0.23,1.9,0,2.24  c1.47,0,3.18-0.17,5.66-0.17c3.11,0,5.1,0.17,5.89,0.17c0.34-0.39,0.45-1.86,0.23-2.24"/>
<style xmlns="" type="text/css" id="igtranslator-color"/></svg>