<?xml version="1.0" encoding="UTF-8"?>
<!-- Generator: Adobe Illustrator 23.0.5, SVG Export Plug-In . SVG Version: 6.00 Build 0)  -->
<svg version="1.1" id="Capa_1" xmlns="http://www.w3.org/2000/svg" xmlns:xlink="http://www.w3.org/1999/xlink" x="0px" y="0px" viewBox="0 0 277 66" style="enable-background:new 0 0 277 66;" xml:space="preserve">
<style type="text/css">
	.st0{fill:#00758F;}
	.st1{fill:#F29111;}
	.st2{fill-rule:evenodd;clip-rule:evenodd;fill:#F29111;}
	.st3{fill-rule:evenodd;clip-rule:evenodd;fill:#00758F;}
</style>
<path class="st0" d="M56.85,52.7h-8.34c-0.29-14.11-1.11-27.39-2.44-39.82H46L33.3,52.7h-6.35L14.33,12.88h-0.07  c-0.94,11.94-1.53,25.21-1.77,39.82h-7.6C5.37,34.94,6.6,18.29,8.57,2.74h10.34l12.03,36.71h0.07L43.12,2.74h9.89  C55.18,20.95,56.46,37.6,56.85,52.7 M93.03,15.84c-3.4,18.48-7.88,31.9-13.44,40.28c-4.33,6.45-9.08,9.68-14.25,9.68  c-1.38,0-3.08-0.42-5.09-1.24v-4.45c0.99,0.14,2.14,0.22,3.47,0.22c2.41,0,4.35-0.67,5.83-2c1.77-1.63,2.66-3.45,2.66-5.48  c0-1.38-0.69-4.22-2.07-8.51l-9.15-28.5h8.19l6.57,21.31c1.48,4.84,2.09,8.22,1.85,10.14c3.59-9.62,6.1-20.11,7.53-31.46H93.03"/>
<path class="st1" d="M129.56,38.85c0,4.24-1.55,7.72-4.65,10.44c-3.1,2.71-7.26,4.07-12.47,4.07c-4.87,0-9.6-1.56-14.17-4.67  l2.14-4.29c3.94,1.97,7.5,2.96,10.7,2.96c3,0,5.35-0.67,7.05-1.99c1.7-1.33,2.71-3.19,2.71-5.55c0-2.97-2.06-5.5-5.85-7.63  c-3.5-1.92-10.48-5.94-10.48-5.94c-3.78-2.77-5.68-5.74-5.68-10.63c0-4.05,1.41-7.32,4.24-9.81c2.83-2.49,6.49-3.74,10.96-3.74  c4.63,0,8.83,1.24,12.62,3.7l-1.92,4.29C121.52,8.69,118.32,8,115.17,8c-2.56,0-4.53,0.62-5.9,1.85c-1.38,1.23-2.24,2.81-2.24,4.73  c0,2.96,2.11,5.53,6,7.69c3.54,1.92,10.7,6.02,10.7,6.02C127.62,31.06,129.56,34,129.56,38.85"/>
<path class="st2" d="M144.47,42.71c-2.02-3.26-3.03-8.48-3.03-15.69c0-12.58,3.81-18.87,11.44-18.87c3.99,0,6.91,1.51,8.79,4.51  c2.02,3.26,3.03,8.44,3.03,15.54c0,12.68-3.82,19.02-11.44,19.02C149.27,47.23,146.34,45.72,144.47,42.71 M174.14,53.91l-9.16-4.53  c0.82-0.67,1.59-1.39,2.29-2.23c3.89-4.58,5.83-11.37,5.83-20.35c0-16.53-6.47-24.8-19.41-24.8c-6.35,0-11.3,2.1-14.84,6.29  c-3.89,4.59-5.83,11.35-5.83,20.28c0,8.78,1.72,15.23,5.17,19.32c3.14,3.7,7.89,5.55,14.24,5.55c2.37,0,4.55-0.29,6.52-0.88  l11.93,6.96L174.14,53.91"/>
<polygon class="st1" points="204.04,52.7 180.35,52.7 180.35,2.74 188.32,2.74 188.32,46.56 204.04,46.56 "/>
<g>
	<path class="st3" d="M268.32,51.73c-3.92-0.09-6.95,0.26-9.5,1.22c-0.73,0.26-1.91,0.26-2.01,1.09c0.39,0.35,0.44,0.92,0.79,1.4   c0.59,0.87,1.61,2.05,2.54,2.66c1.03,0.7,2.06,1.39,3.14,2.01c1.91,1.05,4.06,1.66,5.92,2.71c1.08,0.61,2.15,1.4,3.24,2.05   c0.54,0.35,0.88,0.92,1.56,1.13v-0.13c-0.35-0.39-0.44-0.96-0.78-1.4c-0.49-0.43-0.98-0.83-1.47-1.26   c-1.42-1.7-3.19-3.18-5.09-4.41c-1.57-0.96-5-2.27-5.63-3.88l-0.1-0.09c1.08-0.09,2.35-0.44,3.38-0.7c1.66-0.39,3.18-0.3,4.89-0.7   c0.78-0.18,1.57-0.4,2.36-0.61v-0.4c-0.89-0.78-1.52-1.83-2.45-2.57c-2.5-1.92-5.24-3.8-8.08-5.37c-1.52-0.87-3.48-1.44-5.1-2.18   c-0.58-0.26-1.56-0.39-1.91-0.83c-0.88-0.96-1.37-2.22-2.01-3.36c-1.42-2.4-2.79-5.06-4.01-7.6c-0.88-1.7-1.42-3.4-2.5-4.97   c-5.05-7.42-10.53-11.92-18.95-16.32c-1.81-0.92-3.97-1.31-6.27-1.79c-1.23-0.05-2.45-0.13-3.67-0.17   c-0.78-0.31-1.57-1.14-2.25-1.53c-2.79-1.57-9.99-4.97-12.05-0.48c-1.32,2.84,1.96,5.63,3.09,7.07c0.83,1,1.91,2.14,2.5,3.27   c0.34,0.74,0.44,1.53,0.79,2.31c0.78,1.92,1.52,4.06,2.55,5.85c0.54,0.92,1.12,1.88,1.81,2.7c0.4,0.48,1.08,0.7,1.23,1.49   c-0.68,0.87-0.74,2.18-1.13,3.27c-1.76,4.93-1.08,11.04,1.42,14.67c0.78,1.09,2.65,3.49,5.14,2.57c2.2-0.78,1.71-3.27,2.35-5.45   c0.15-0.53,0.05-0.87,0.34-1.22v0.09c0.69,1.22,1.37,2.4,2.01,3.62c1.52,2.14,4.16,4.36,6.37,5.85c1.17,0.79,2.1,2.14,3.57,2.62   v-0.13h-0.1c-0.29-0.39-0.73-0.57-1.13-0.87c-0.88-0.79-1.86-1.75-2.55-2.62c-2.06-2.44-3.87-5.15-5.48-7.94   c-0.79-1.36-1.47-2.84-2.11-4.19c-0.29-0.52-0.29-1.31-0.78-1.57c-0.74,0.96-1.81,1.79-2.35,2.96c-0.93,1.88-1.03,4.19-1.37,6.59   c-0.19,0.05-0.1,0-0.19,0.09c-1.56-0.35-2.1-1.79-2.69-3.01c-1.47-3.1-1.72-8.08-0.44-11.66c0.34-0.91,1.81-3.8,1.22-4.67   c-0.3-0.83-1.27-1.31-1.81-1.97c-0.64-0.83-1.32-1.87-1.76-2.79c-1.18-2.44-1.77-5.15-3.04-7.59c-0.59-1.14-1.62-2.32-2.45-3.36   c-0.93-1.18-1.96-2.01-2.7-3.4c-0.24-0.48-0.59-1.27-0.2-1.79c0.1-0.35,0.29-0.48,0.69-0.57c0.63-0.48,2.45,0.13,3.08,0.39   c1.81,0.65,3.33,1.27,4.85,2.18c0.69,0.44,1.42,1.27,2.3,1.49h1.03c1.57,0.3,3.33,0.08,4.8,0.48c2.59,0.74,4.94,1.83,7.05,3.01   c6.41,3.62,11.7,8.78,15.27,14.93c0.59,1,0.84,1.92,1.37,2.97c1.03,2.14,2.3,4.33,3.33,6.42c1.03,2.05,2.01,4.15,3.48,5.85   c0.73,0.91,3.67,1.4,4.99,1.88c0.98,0.39,2.5,0.74,3.38,1.22c1.66,0.91,3.33,1.96,4.9,2.97C265.72,49.76,268.17,50.85,268.32,51.73   "/>
	<path class="st3" d="M218.37,13.79c-0.68,0-1.35,0.07-2.01,0.22v0.09h0.1c0.4,0.7,1.08,1.18,1.57,1.79   c0.39,0.7,0.74,1.39,1.13,2.09c0.05-0.04,0.1-0.09,0.1-0.09c0.69-0.43,1.03-1.13,1.03-2.18c-0.3-0.31-0.34-0.61-0.59-0.92   C219.4,14.36,218.76,14.14,218.37,13.79"/>
</g>
<style xmlns="" type="text/css" id="igtranslator-color"/></svg>