<?xml version="1.0" encoding="UTF-8"?>
<!-- Generator: Adobe Illustrator 23.0.5, SVG Export Plug-In . SVG Version: 6.00 Build 0)  -->
<svg version="1.1" id="Capa_1" xmlns="http://www.w3.org/2000/svg" xmlns:xlink="http://www.w3.org/1999/xlink" x="0px" y="0px" viewBox="0 0 233 66" style="enable-background:new 0 0 233 66;" xml:space="preserve">
<style type="text/css">
	.st0{fill:#679E63;}
	.st1{fill-rule:evenodd;clip-rule:evenodd;fill:#333333;}
	.st2{fill-rule:evenodd;clip-rule:evenodd;fill:#679E63;}
	.st3{clip-path:url(#XMLID_5_);}
	.st4{fill:none;}
	.st5{fill:url(#SVGID_1_);}
	.st6{fill:url(#SVGID_2_);}
	.st7{fill:url(#SVGID_3_);}
	.st8{fill:url(#SVGID_4_);}
	.st9{fill:url(#SVGID_5_);}
	.st10{fill:url(#SVGID_6_);}
</style>
<g>
	<path class="st0" d="M202.51,65.02c-0.86,0-1.72-0.22-2.47-0.66l-7.86-4.65c-1.17-0.66-0.6-0.89-0.21-1.02   c1.57-0.54,1.88-0.67,3.55-1.62c0.17-0.1,0.4-0.06,0.58,0.04l6.04,3.59c0.22,0.12,0.53,0.12,0.73,0l23.54-13.59   c0.22-0.13,0.36-0.38,0.36-0.64V19.3c0-0.27-0.14-0.51-0.37-0.65L202.88,5.08c-0.22-0.13-0.51-0.13-0.73,0l-23.53,13.58   c-0.23,0.13-0.37,0.39-0.37,0.64v27.17c0,0.26,0.14,0.51,0.37,0.63l6.45,3.73c3.5,1.75,5.64-0.31,5.64-2.38V21.62   c0-0.38,0.31-0.68,0.68-0.68h2.99c0.37,0,0.68,0.3,0.68,0.68v26.82c0,4.67-2.54,7.35-6.97,7.35c-1.36,0-2.43,0-5.42-1.47   l-6.17-3.55c-1.52-0.88-2.47-2.53-2.47-4.29V19.3c0-1.77,0.94-3.41,2.47-4.29l23.54-13.6c1.49-0.84,3.47-0.84,4.95,0l23.54,13.6   c1.52,0.88,2.47,2.53,2.47,4.29v27.17c0,1.77-0.95,3.41-2.47,4.29l-23.54,13.59C204.23,64.79,203.38,65.02,202.51,65.02z"/>
	<path class="st0" d="M209.78,46.3c-10.3,0-12.46-4.73-12.46-8.7c0-0.38,0.3-0.68,0.68-0.68h3.04c0.34,0,0.62,0.24,0.68,0.58   c0.46,3.1,1.83,4.66,8.06,4.66c4.96,0,7.07-1.12,7.07-3.75c0-1.52-0.6-2.64-8.31-3.4c-6.44-0.64-10.43-2.06-10.43-7.21   c0-4.75,4-7.58,10.72-7.58c7.54,0,11.27,2.62,11.75,8.23c0.02,0.19-0.05,0.38-0.18,0.52c-0.13,0.13-0.31,0.22-0.5,0.22h-3.06   c-0.32,0-0.6-0.22-0.66-0.53c-0.73-3.26-2.52-4.3-7.35-4.3c-5.41,0-6.04,1.89-6.04,3.3c0,1.71,0.74,2.21,8.05,3.18   c7.23,0.96,10.67,2.31,10.67,7.4C221.52,43.36,217.24,46.3,209.78,46.3z"/>
</g>
<path class="st1" d="M38.07,35.15c0-0.69-0.37-1.33-0.96-1.68l-15.97-9.19c-0.27-0.16-0.57-0.24-0.88-0.25c-0.03,0-0.14,0-0.17,0  c-0.31,0.01-0.61,0.1-0.88,0.25L3.23,33.47c-0.6,0.34-0.97,0.98-0.97,1.68L2.3,59.9c0,0.34,0.18,0.66,0.48,0.83  c0.3,0.18,0.66,0.18,0.96,0l9.49-5.44c0.6-0.36,0.97-0.99,0.97-1.67V42.06c0-0.69,0.37-1.33,0.96-1.67l4.04-2.33  c0.3-0.17,0.63-0.26,0.97-0.26c0.33,0,0.67,0.09,0.96,0.26l4.04,2.33c0.6,0.34,0.96,0.98,0.96,1.67v11.56  c0,0.69,0.37,1.32,0.97,1.67l9.49,5.44c0.3,0.18,0.67,0.18,0.96,0c0.29-0.17,0.48-0.49,0.48-0.83L38.07,35.15z"/>
<path class="st1" d="M114.92,1.12c-0.3-0.17-0.66-0.16-0.96,0.01c-0.29,0.17-0.48,0.49-0.48,0.83v24.51c0,0.24-0.13,0.46-0.34,0.58  c-0.21,0.12-0.47,0.12-0.68,0l-4-2.3c-0.6-0.34-1.33-0.34-1.93,0l-15.98,9.22c-0.6,0.34-0.97,0.98-0.97,1.67v18.45  c0,0.69,0.37,1.33,0.96,1.67l15.98,9.23c0.6,0.34,1.33,0.34,1.93,0l15.98-9.23c0.6-0.35,0.96-0.98,0.96-1.67V8.11  c0-0.7-0.38-1.34-0.99-1.69L114.92,1.12z M113.44,48.03c0,0.17-0.09,0.33-0.24,0.42l-5.49,3.16c-0.15,0.09-0.33,0.09-0.48,0  l-5.49-3.16c-0.15-0.09-0.24-0.25-0.24-0.42V41.7c0-0.17,0.09-0.33,0.24-0.42l5.49-3.17c0.15-0.09,0.33-0.09,0.48,0l5.49,3.17  c0.15,0.09,0.24,0.25,0.24,0.42V48.03z"/>
<g>
	<path class="st1" d="M168.12,41.53c0.59-0.35,0.96-0.98,0.96-1.67v-4.47c0-0.69-0.37-1.32-0.96-1.67l-15.88-9.22   c-0.6-0.35-1.33-0.35-1.93,0l-15.97,9.22c-0.6,0.34-0.96,0.98-0.96,1.67v18.44c0,0.69,0.37,1.33,0.97,1.68l15.87,9.04   c0.59,0.33,1.3,0.34,1.89,0.01l9.6-5.34c0.3-0.17,0.49-0.49,0.5-0.84c0-0.35-0.18-0.67-0.48-0.84l-16.07-9.23   c-0.3-0.17-0.48-0.49-0.48-0.84v-5.78c0-0.34,0.18-0.66,0.48-0.84l5-2.88c0.3-0.17,0.67-0.17,0.96,0l5,2.88   c0.3,0.17,0.48,0.49,0.48,0.84v4.55c0,0.35,0.18,0.66,0.48,0.84c0.3,0.17,0.67,0.17,0.97,0L168.12,41.53z"/>
	<path class="st2" d="M151.04,40.67c0.11-0.07,0.26-0.07,0.37,0l3.07,1.77c0.11,0.07,0.19,0.19,0.19,0.32v3.54   c0,0.13-0.07,0.25-0.19,0.32l-3.07,1.77c-0.11,0.07-0.26,0.07-0.37,0l-3.06-1.77c-0.11-0.07-0.19-0.19-0.19-0.32v-3.54   c0-0.13,0.07-0.25,0.19-0.32L151.04,40.67z"/>
</g>
<g>
	<defs>
		<path id="XMLID_143_" d="M64.8,24.6c-0.59-0.34-1.32-0.34-1.92,0l-15.89,9.17c-0.59,0.34-0.96,0.98-0.96,1.66v18.35    c0,0.69,0.37,1.32,0.96,1.66l15.89,9.18c0.59,0.34,1.33,0.34,1.92,0l15.88-9.18c0.59-0.34,0.96-0.98,0.96-1.66V35.43    c0-0.69-0.37-1.32-0.96-1.66L64.8,24.6z"/>
	</defs>
	<linearGradient id="XMLID_4_" gradientUnits="userSpaceOnUse" x1="70.2938" y1="31.43" x2="55.94" y2="60.7116">
		<stop offset="0" style="stop-color:#3F873F"/>
		<stop offset="0.3296" style="stop-color:#3F8B3D"/>
		<stop offset="0.6367" style="stop-color:#3E9638"/>
		<stop offset="0.9341" style="stop-color:#3DA92E"/>
		<stop offset="1" style="stop-color:#3DAE2B"/>
	</linearGradient>
	<use xlink:href="#XMLID_143_" style="overflow:visible;fill-rule:evenodd;clip-rule:evenodd;fill:url(#XMLID_4_);"/>
	<clipPath id="XMLID_5_">
		<use xlink:href="#XMLID_143_" style="overflow:visible;"/>
	</clipPath>
	<g class="st3">
		<path class="st4" d="M62.84,24.6l-15.92,9.17c-0.59,0.34-1.03,0.98-1.03,1.66v18.35c0,0.45,0.19,0.88,0.5,1.22l17.89-30.6    C63.8,24.28,63.28,24.35,62.84,24.6z"/>
		<path class="st4" d="M64.37,64.81c0.15-0.04,0.31-0.1,0.45-0.19l15.9-9.18c0.59-0.34,1-0.98,1-1.66V35.43    c0-0.5-0.23-0.98-0.58-1.33L64.37,64.81z"/>
		<linearGradient id="SVGID_1_" gradientUnits="userSpaceOnUse" x1="61.4157" y1="46.7543" x2="101.6912" y2="16.9966">
			<stop offset="0.1376" style="stop-color:#3F873F"/>
			<stop offset="0.4016" style="stop-color:#52A044"/>
			<stop offset="0.7129" style="stop-color:#64B749"/>
			<stop offset="0.9081" style="stop-color:#6ABF4B"/>
		</linearGradient>
		<path class="st5" d="M80.71,33.77L64.78,24.6c-0.16-0.09-0.33-0.16-0.5-0.2L46.39,55c0.15,0.17,0.33,0.32,0.54,0.44l15.96,9.18    c0.45,0.26,0.99,0.32,1.48,0.19L81.14,34.1C81.01,33.97,80.87,33.86,80.71,33.77z"/>
	</g>
	<g class="st3">
		<path class="st4" d="M81.72,53.78V35.43c0-0.69-0.41-1.32-1.01-1.66L64.78,24.6c-0.18-0.11-0.38-0.17-0.58-0.22l17.47,29.84    C81.7,54.08,81.72,53.93,81.72,53.78z"/>
		<path class="st4" d="M46.92,33.77c-0.59,0.34-1.03,0.98-1.03,1.66v18.35c0,0.69,0.44,1.32,1.03,1.66l15.96,9.18    c0.38,0.22,0.81,0.3,1.23,0.24l-17.1-31.14L46.92,33.77z"/>
		<linearGradient id="SVGID_2_" gradientUnits="userSpaceOnUse" x1="45.4667" y1="21.2938" x2="82.2013" y2="21.2938">
			<stop offset="0.0919" style="stop-color:#6ABF4B"/>
			<stop offset="0.2871" style="stop-color:#64B749"/>
			<stop offset="0.5984" style="stop-color:#52A044"/>
			<stop offset="0.8624" style="stop-color:#3F873F"/>
		</linearGradient>
		<polygon class="st6" points="62.35,21.23 62.13,21.36 62.42,21.36   "/>
		<linearGradient id="SVGID_3_" gradientUnits="userSpaceOnUse" x1="45.4667" y1="44.6042" x2="82.2013" y2="44.6042">
			<stop offset="0.0919" style="stop-color:#6ABF4B"/>
			<stop offset="0.2871" style="stop-color:#64B749"/>
			<stop offset="0.5984" style="stop-color:#52A044"/>
			<stop offset="0.8624" style="stop-color:#3F873F"/>
		</linearGradient>
		<path class="st7" d="M80.72,55.45c0.46-0.27,0.81-0.71,0.94-1.22L64.19,24.39c-0.46-0.09-0.94-0.02-1.35,0.22l-15.83,9.11    l17.1,31.14c0.24-0.03,0.48-0.11,0.7-0.24L80.72,55.45z"/>
		<linearGradient id="SVGID_4_" gradientUnits="userSpaceOnUse" x1="45.4667" y1="55.0912" x2="82.2013" y2="55.0912">
			<stop offset="0.0919" style="stop-color:#6ABF4B"/>
			<stop offset="0.2871" style="stop-color:#64B749"/>
			<stop offset="0.5984" style="stop-color:#52A044"/>
			<stop offset="0.8624" style="stop-color:#3F873F"/>
		</linearGradient>
		<polygon class="st8" points="82.2,55.15 82.1,54.97 82.1,55.21   "/>
		<linearGradient id="SVGID_5_" gradientUnits="userSpaceOnUse" x1="45.4667" y1="59.8311" x2="82.2013" y2="59.8311">
			<stop offset="0.0919" style="stop-color:#6ABF4B"/>
			<stop offset="0.2871" style="stop-color:#64B749"/>
			<stop offset="0.5984" style="stop-color:#52A044"/>
			<stop offset="0.8624" style="stop-color:#3F873F"/>
		</linearGradient>
		<path class="st9" d="M80.72,55.45l-15.9,9.18c-0.22,0.13-0.46,0.21-0.7,0.24l0.32,0.58L82.1,55.21v-0.24l-0.44-0.75    C81.53,54.73,81.18,55.18,80.72,55.45z"/>
		<linearGradient id="SVGID_6_" gradientUnits="userSpaceOnUse" x1="87.5531" y1="30.5618" x2="64.8975" y2="76.7792">
			<stop offset="0" style="stop-color:#3F873F"/>
			<stop offset="0.3296" style="stop-color:#3F8B3D"/>
			<stop offset="0.6367" style="stop-color:#3E9638"/>
			<stop offset="0.9341" style="stop-color:#3DA92E"/>
			<stop offset="1" style="stop-color:#3DAE2B"/>
		</linearGradient>
		<path class="st10" d="M80.72,55.45l-15.9,9.18c-0.22,0.13-0.46,0.21-0.7,0.24l0.32,0.58L82.1,55.21v-0.24l-0.44-0.75    C81.53,54.73,81.18,55.18,80.72,55.45z"/>
	</g>
</g>
<style xmlns="" type="text/css" id="igtranslator-color"/></svg>