<?xml version="1.0" encoding="UTF-8"?>
<!-- Generator: Adobe Illustrator 23.0.5, SVG Export Plug-In . SVG Version: 6.00 Build 0)  -->
<svg version="1.1" id="Capa_1" xmlns="http://www.w3.org/2000/svg" xmlns:xlink="http://www.w3.org/1999/xlink" x="0px" y="0px" viewBox="0 0 241 66" style="enable-background:new 0 0 241 66;" xml:space="preserve">
<style type="text/css">
	.st0{fill-rule:evenodd;clip-rule:evenodd;fill:#00D8FF;}
	.st1{fill:none;stroke:#00D8FF;stroke-width:24;}
</style>
<g transform="matrix(.06928 0 0 .06928 7.367398 13.505331)">
	<circle class="st0" cx="624.45" cy="283.8" r="95.94"/>
	<g>
		<path class="st1" d="M624.45,88.73c128.82,0,248.48,18.48,338.71,49.55c108.71,37.43,175.55,94.16,175.55,145.53    c0,53.53-70.84,113.8-187.58,152.48c-88.26,29.24-204.41,44.51-326.69,44.51c-125.37,0-244.09-14.33-333.34-44.83    c-112.92-38.6-180.94-99.65-180.94-152.16c0-50.95,63.82-107.24,171-144.61c90.57-31.57,213.19-50.46,343.26-50.46L624.45,88.73z"/>
		<path class="st1" d="M454.64,186.82C518.99,75.24,594.78-19.19,666.77-81.84c86.73-75.48,169.27-105.04,213.77-79.38    C926.91-134.47,943.73-43,918.91,77.45c-18.74,91.07-63.56,199.3-124.65,305.23c-62.63,108.61-134.35,204.29-205.36,266.35    C499.06,727.58,412.2,756,366.71,729.77c-44.14-25.44-61.02-108.86-39.84-220.38c17.89-94.23,62.79-209.88,127.75-322.57    L454.64,186.82z"/>
		<path class="st1" d="M454.8,382.97C390.26,271.51,346.32,158.66,327.98,65.01c-22.08-112.84-6.47-199.11,37.99-224.84    c46.33-26.82,133.98,4.29,225.94,85.95c69.53,61.73,140.93,154.6,202.19,260.43c62.81,108.5,109.89,218.42,128.2,310.93    c23.17,117.07,4.42,206.52-41.03,232.82c-44.1,25.53-124.79-1.5-210.83-75.54C597.75,592.2,519.97,495.54,454.8,382.97    L454.8,382.97z"/>
	</g>
</g>
<path class="st0" d="M126.94,50.97l-10.77-16.27c5.44-0.48,10.34-4.42,10.34-11.63c0-7.33-5.2-12.02-12.5-12.02H98v39.88h4.96V35.1  h7.95l10.17,15.85L126.94,50.97z M113.43,30.76h-10.46V15.51h10.46c4.73,0,7.95,3.11,7.95,7.59S118.15,30.77,113.43,30.76  L113.43,30.76z M145.42,51.69c4.73,0,8.61-1.55,11.48-4.42l-2.15-2.93c-2.27,2.33-5.62,3.65-8.91,3.65  c-6.22,0-10.05-4.54-10.41-9.98h23.38v-1.14c0-8.67-5.14-15.49-13.88-15.49c-8.25,0-14.23,6.76-14.23,15.13  c0,9.03,6.16,15.16,14.71,15.16L145.42,51.69z M154.39,34.7h-18.96c0.24-4.42,3.29-9.63,9.45-9.63  C151.47,25.08,154.33,30.4,154.39,34.7z M188.6,50.97V31.12c0-7-5.08-9.75-11.18-9.75c-4.73,0-8.43,1.55-11.54,4.78l2.09,3.11  c2.57-2.75,5.38-4.01,8.85-4.01c4.19,0,7.3,2.21,7.3,6.1v5.2c-2.33-2.69-5.62-3.95-9.57-3.95c-4.9,0-10.11,3.05-10.11,9.51  c0,6.28,5.2,9.57,10.11,9.57c3.89,0,7.18-1.37,9.57-4.01v3.29L188.6,50.97z M176.17,48.46c-4.19,0-7.12-2.63-7.12-6.28  c0-3.71,2.93-6.34,7.12-6.34c3.17,0,6.22,1.2,7.95,3.59v5.44C182.39,47.26,179.34,48.46,176.17,48.46L176.17,48.46z M210.29,51.69  c5.26,0,8.37-2.15,10.58-5.02l-2.99-2.75c-1.91,2.57-4.36,3.77-7.33,3.77c-6.16,0-9.98-4.78-9.98-11.18s3.83-11.12,9.98-11.12  c2.99,0,5.44,1.14,7.33,3.77l2.99-2.75c-2.21-2.87-5.32-5.02-10.58-5.02c-8.61,0-14.41,6.58-14.41,15.13  c0,8.61,5.8,15.16,14.41,15.16V51.69z M234.45,51.69c2.63,0,4.25-0.78,5.38-1.85l-1.31-3.35c-0.6,0.66-1.77,1.2-3.05,1.2  c-1.97,0-2.93-1.55-2.93-3.71V26.04h5.86v-3.95h-5.86V14.2h-4.49v7.89h-4.78v3.95h4.78v18.9C228.05,49.24,230.2,51.69,234.45,51.69  L234.45,51.69z"/>
<style xmlns="" type="text/css" id="igtranslator-color"/></svg>