<?xml version="1.0" encoding="UTF-8"?>
<!-- Generator: Adobe Illustrator 23.0.5, SVG Export Plug-In . SVG Version: 6.00 Build 0)  -->
<svg version="1.1" id="Capa_1" xmlns="http://www.w3.org/2000/svg" xmlns:xlink="http://www.w3.org/1999/xlink" x="0px" y="0px" viewBox="0 0 252 66" style="enable-background:new 0 0 252 66;" xml:space="preserve">
<style type="text/css">
	.st0{fill:#1A171B;}
	.st1{fill:#FFFFFF;}
</style>
<circle class="st0" cx="32.46" cy="32.67" r="32.46"/>
<path class="st1" d="M46.64,12.22c-3.3,0.11-6.17,1.93-8.32,4.45c-2.37,2.76-3.95,6.02-5.09,9.36c-2.03-1.67-3.6-3.83-6.87-4.77  c-2.52-0.72-5.17-0.42-7.61,1.39c-1.15,0.86-1.95,2.17-2.33,3.39c-0.98,3.18,1.03,6.02,1.94,7.03l1.99,2.14  c0.41,0.42,1.4,1.51,0.92,3.08c-0.52,1.7-2.58,2.81-4.68,2.16c-0.94-0.29-2.29-0.99-1.99-1.97c0.13-0.4,0.41-0.71,0.57-1.06  c0.14-0.3,0.21-0.53,0.25-0.66c0.39-1.26-0.14-2.89-1.49-3.31c-1.26-0.38-2.54-0.08-3.04,1.54c-0.56,1.84,0.31,5.17,5.02,6.62  c5.52,1.69,10.18-1.31,10.85-5.23c0.42-2.45-0.69-4.28-2.72-6.62l-1.65-1.83c-1-1-1.35-2.71-0.31-4.02  c0.88-1.11,2.12-1.58,4.16-1.02c2.98,0.81,4.31,2.88,6.52,4.54c-0.92,3-1.51,6.01-2.05,8.71l-0.33,2.01  c-1.58,8.31-2.79,12.87-5.93,15.49c-0.63,0.45-1.54,1.12-2.9,1.17c-0.72,0.02-0.95-0.47-0.96-0.68c-0.02-0.5,0.41-0.73,0.69-0.96  c0.42-0.23,1.06-0.61,1.01-1.83c-0.05-1.44-1.24-2.69-2.96-2.63c-1.29,0.04-3.26,1.26-3.18,3.48c0.08,2.29,2.22,4.01,5.44,3.91  c1.72-0.06,5.57-0.76,9.37-5.27c4.42-5.17,5.65-11.1,6.58-15.44l1.04-5.73c0.58,0.07,1.19,0.11,1.86,0.13  c5.5,0.12,8.25-2.73,8.29-4.81c0.03-1.25-0.82-2.49-2.01-2.46c-0.85,0.02-1.92,0.59-2.18,1.77c-0.25,1.16,1.75,2.2,0.19,3.21  c-1.11,0.72-3.1,1.23-5.91,0.81l0.51-2.82c1.04-5.35,2.33-11.92,7.2-12.08c0.35-0.02,1.65,0.02,1.68,0.88  c0.01,0.29-0.06,0.36-0.4,1.02c-0.34,0.51-0.47,0.95-0.46,1.45c0.05,1.36,1.08,2.26,2.59,2.21c2.01-0.07,2.59-2.02,2.56-3.03  C52.43,13.6,49.94,12.11,46.64,12.22L46.64,12.22z"/>
<path class="st0" d="M182.78,23.53c7.48,0,12.5,5.41,12.5,12.89c0,7.05-5.12,12.89-12.5,12.89c-7.43,0-12.55-5.84-12.55-12.89  C170.23,28.94,175.25,23.53,182.78,23.53z M182.78,45.64c5.31,0,7.67-4.83,7.67-9.22c0-4.68-2.85-9.22-7.67-9.22  c-4.88,0-7.72,4.54-7.72,9.22C175.06,40.81,177.42,45.64,182.78,45.64z M169.61,25.83v-1.71h-6.52v-2.34c0-3.33,0.48-5.84,4.39-5.84  c0.07,0,0.15,0.01,0.22,0.01c0.01,0,0.01-0.01,0.02-0.01c1.09,0.08,1.99-0.8,2.05-1.89l0.08-1.49c-0.91-0.15-1.88-0.29-3.04-0.29  c-6.71,0-8.26,3.91-8.26,9.9v1.95h-5.79v1.91c0.15,0.99,1,1.75,2.03,1.75c0.01,0,0.01,0,0.02,0h3.75v20.95h2.5l0.01,0  c1.04,0,1.89-0.78,2.03-1.78V27.78h4.54C168.7,27.75,169.56,26.89,169.61,25.83L169.61,25.83z M109.18,24.11  c-0.01,0-0.01,0.01-0.02,0.01c-0.96,0-1.88,0.66-2.29,1.55l-6.24,18.82h-0.1l-6.11-18.81c-0.4-0.89-1.33-1.56-2.29-1.56  c-0.01,0-0.01-0.01-0.02-0.01h-3.16l8.35,22.98c0.29,0.82,0.87,2.08,0.87,2.61c0,0.48-1.35,6.08-5.41,6.08c-0.1,0-0.2-0.01-0.3-0.02  c-1.03-0.06-1.82,0.67-1.99,1.78l-0.12,1.57c0.82,0.15,1.64,0.34,3.09,0.34c5.98,0,7.77-5.45,9.46-10.19l9.07-25.15L109.18,24.11  L109.18,24.11z M80.33,29.11c-3.75-1.92-7.85-3.22-7.92-7.08c0.01-4.1,3.78-5.17,6.68-5.17c0.01,0,0.02,0,0.03,0  c1.26,0,2.27,0.13,3.25,0.34c0.01,0,0.01-0.02,0.03-0.02c1.04,0.08,1.91-0.74,2.03-1.76l0.08-1.49c-1.9-0.47-3.89-0.71-5.62-0.71  c-6.31,0.04-10.99,3.21-11.01,9.27c0.01,5.3,3.58,7.35,7.42,9.21c3.76,1.81,7.89,3.31,7.92,7.67c-0.02,4.56-4.42,6.24-7.46,6.25  c-1.77-0.01-3.7-0.45-5.32-0.96c-1.02-0.17-1.85,0.73-1.98,1.92l-0.14,1.33c2.23,0.72,4.52,1.35,6.82,1.35h0.03  c7.07-0.05,12.56-2.87,12.58-10.19C87.74,33.42,84.15,31.05,80.33,29.11L80.33,29.11z M148.96,48.73L148.96,48.73  c0.99,0,1.8-0.69,2.01-1.6V32.95c0-5.36-2.27-9.41-8.55-9.41c-2.22,0-5.93,1.26-7.62,4.78c-1.31-3.33-4.15-4.78-7-4.78  c-3.62,0-6.08,1.3-7.82,4.15h-0.1v-1.53c-0.01-1.13-0.93-2.03-2.05-2.04c-0.01,0-0.01-0.01-0.02-0.01h-2.17v24.62h2.46l0.01,0  c1.14,0,2.06-0.92,2.06-2.06c0-0.03,0.01-0.04,0.02-0.06V36.33c0-4.58,1.83-9.12,6.47-9.12c3.67,0,4.4,3.81,4.4,6.85v14.67h2.49  l0.01,0c1.06,0,1.95-0.82,2.04-1.87V36.33c0-4.58,1.84-9.12,6.47-9.12c3.67,0,4.39,3.81,4.39,6.85v14.67L148.96,48.73L148.96,48.73z   M219.07,48.73L219.07,48.73c1.11,0,2.01-0.87,2.06-1.97V34.1c0-6.61-2.85-10.57-9.22-10.57c-3.43,0-6.71,1.69-8.06,4.49h-0.1v-1.84  c0,0,0,0,0-0.01c0-1.14-0.92-2.06-2.05-2.06c0,0,0,0-0.01,0c-0.01,0-0.01-0.01-0.02-0.01h-2.31v24.62h2.49l0.01,0  c1.07,0,1.96-0.83,2.04-1.9v-9.49c0-5.98,2.32-10.14,7.48-10.14c3.96,0.24,5.21,3.04,5.21,8.78v12.74L219.07,48.73L219.07,48.73z   M243.5,24.11c-0.01,0-0.01,0.01-0.03,0.01c-0.95,0-1.88,0.66-2.28,1.55l-6.24,18.82h-0.1l-6.1-18.81c-0.4-0.89-1.33-1.56-2.29-1.56  c-0.01,0-0.01-0.01-0.02-0.01h-3.16l8.35,22.98c0.29,0.82,0.87,2.08,0.87,2.61c0,0.48-1.35,6.08-5.41,6.08c-0.1,0-0.2-0.01-0.3-0.02  c-1.03-0.06-1.82,0.67-1.99,1.78l-0.12,1.57c0.82,0.15,1.65,0.34,3.09,0.34c5.98,0,7.77-5.45,9.46-10.19l9.07-25.15L243.5,24.11  L243.5,24.11z"/>
<style xmlns="" type="text/css" id="igtranslator-color"/></svg>