<svg id="Capa_1" data-name="Capa 1" xmlns="http://www.w3.org/2000/svg" viewBox="0 0 210.54 62.99"><defs><style>.cls-1{fill:#4db987;}.cls-2{fill:#435466;}</style></defs><title>Vue-logo</title><path class="cls-1" d="M60.51,1.05H75.13L38.8,64,2.46,1.05H17l6.18,10.72Q30.76,24.9,38.33,38c.36.62.52.72.92,0,2.44-4.28,4.92-8.53,7.38-12.8q5.09-8.81,10.15-17.61C58,5.44,59.4,3.31,60.51,1.05Z" transform="translate(-2.46 -1)"/><path class="cls-2" d="M60.51,1.05C59.4,3.31,58,5.44,56.78,7.62q-5.06,8.82-10.15,17.61c-2.46,4.27-4.94,8.52-7.38,12.8-.4.7-.56.6-.92,0Q30.77,24.89,23.19,11.77L17,1.05C21.32,1,25.64,1,30,1c.54,0,.67.34.86.67q3.75,6.48,7.47,13c.15.26.31.51.52.86l1.9-3.26L46.79,1.67c.19-.34.34-.67.87-.67Q54.08,1,60.51,1.05Z" transform="translate(-2.46 -1)"/><path class="cls-2" d="M93.16,41.75c2-6.93,4-13.43,5.87-19.94q2.32-7.9,4.67-15.81c.51-1.72,1.4-2.29,2.82-1.86,2,.62,2.58,1.52,2,3.35q-6,19.63-12,39.28a3.2,3.2,0,0,1-3.34,2.6,3.11,3.11,0,0,1-3.44-2.43q-6.18-20-12.35-40c-.38-1.26.24-2.08,2-2.61s2.56-.1,3,1.33c1,3.25,1.94,6.52,2.91,9.78Q89,28,92.75,40.57C92.82,40.82,92.92,41.07,93.16,41.75Z" transform="translate(-2.46 -1)"/><path class="cls-2" d="M154.25,35.79c-2.19,0-4.39.06-6.58,0-1,0-1.1.3-1.15,1.18-.29,5.67,4.14,8.52,9.79,8.16a11.24,11.24,0,0,0,4.95-1.77c1.47-.86,2.26-.71,3,.4s.65,2.08-.68,3.12c-2.89,2.25-6.3,2.78-9.8,2.52-4.79-.36-8.86-2.15-11.23-6.69a8.1,8.1,0,0,1-.91-2.62,38,38,0,0,1,0-11c.91-5.5,6.21-9.58,12-9.56a11.67,11.67,0,0,1,11.58,9.27,11.62,11.62,0,0,1,.18,2.36c0,3.24-1.45,4.67-4.7,4.76-1.07,0-2.15,0-3.22,0s-2.15,0-3.22,0Zm-1.38-3.35v-.07c2,0,4,0,6,0,1.25,0,1.73-.71,1.7-1.89a6.88,6.88,0,0,0-2.76-5.55,7.16,7.16,0,0,0-11.4,6.88c.11.74.55.62,1,.63C149.23,32.45,151.05,32.44,152.87,32.44Z" transform="translate(-2.46 -1)"/><path class="cls-2" d="M135.45,30.15c0,2.43,0,4.86,0,7.28a12.13,12.13,0,0,1-24.26.09c-.08-5.08,0-10.17,0-15.25a2.32,2.32,0,0,1,2.48-2.43,2.41,2.41,0,0,1,2.62,2.46c0,5.08,0,10.17,0,15.25a7.26,7.26,0,0,0,5.44,7.12c4.33,1.1,8.6-2.48,8.64-7.28,0-5,0-10,0-15a2.33,2.33,0,0,1,2.57-2.58c1.64,0,2.51.9,2.51,2.62C135.46,25,135.46,27.59,135.45,30.15Z" transform="translate(-2.46 -1)"/><path class="cls-2" d="M202.5,49.46c-2.94-.18-6-.53-8.53-2.58-.85-.69-1.57-1.48-1.2-2.74.5-1.65,1.56-2.1,2.91-1.07a11.16,11.16,0,0,0,8,2.21c2.59-.2,4.28-1.31,4.61-3.1.39-2.14-.68-3.93-3.21-4.94-2.24-.89-4.61-1.49-6.85-2.37-3.59-1.42-5.19-4-4.82-7.62a7.57,7.57,0,0,1,4.63-6.66,14.66,14.66,0,0,1,12.57.5c1.44.7,1.72,1.51,1.23,2.67-.62,1.48-1.5,1.88-3,1.19a12.14,12.14,0,0,0-6.21-1.32,5.89,5.89,0,0,0-3.13,1.07A3.54,3.54,0,0,0,200,31c2.12,1.11,4.51,1.47,6.74,2.25,4,1.43,6.21,4.15,6.23,8a7.61,7.61,0,0,1-5.26,7.45A15.16,15.16,0,0,1,202.5,49.46Z" transform="translate(-2.46 -1)"/><path class="cls-2" d="M187,38c0,5.08,0,10.16,0,15.24a12.18,12.18,0,0,1-1.77,6.25,7.6,7.6,0,0,1-6.29,3.59A2.46,2.46,0,0,1,176,60.9c-.07-1.35.78-2.16,2.51-2.38a3.21,3.21,0,0,0,3.06-2.77A17.5,17.5,0,0,0,182,51.3V22.63c0-1.92.76-2.76,2.49-2.79s2.66.87,2.66,2.78c0,5.13,0,10.26,0,15.39Z" transform="translate(-2.46 -1)"/><path class="cls-2" d="M173,42.92a3.19,3.19,0,0,1,0,6.38,3.25,3.25,0,0,1-3.19-3.2A3.21,3.21,0,0,1,173,42.92Z" transform="translate(-2.46 -1)"/><path class="cls-2" d="M184.48,6.06A3,3,0,0,1,187.59,9a3.13,3.13,0,0,1-6.24,0A3,3,0,0,1,184.48,6.06Z" transform="translate(-2.46 -1)"/><style xmlns="" type="text/css" id="igtranslator-color"/></svg>