<?xml version="1.0" encoding="UTF-8" standalone="no"?>
<svg
   xmlns:dc="http://purl.org/dc/elements/1.1/"
   xmlns:cc="http://creativecommons.org/ns#"
   xmlns:rdf="http://www.w3.org/1999/02/22-rdf-syntax-ns#"
   xmlns:svg="http://www.w3.org/2000/svg"
   xmlns="http://www.w3.org/2000/svg"
   xmlns:sodipodi="http://sodipodi.sourceforge.net/DTD/sodipodi-0.dtd"
   xmlns:inkscape="http://www.inkscape.org/namespaces/inkscape"
   width="132.09204mm"
   height="102.55485mm"
   clip-rule="evenodd"
   fill-rule="evenodd"
   image-rendering="optimizeQuality"
   shape-rendering="geometricPrecision"
   text-rendering="geometricPrecision"
   version="1.1"
   viewBox="0 0 13209.205 10255.484"
   xml:space="preserve"
   id="svg47"
   sodipodi:docname="presentation.svg"
   inkscape:version="1.0.2 (e86c870879, 2021-01-15)"
   inkscape:export-filename="/home/fryntiz/Descargas/man-1352025.png"
   inkscape:export-xdpi="300"
   inkscape:export-ydpi="300"><metadata
   id="metadata51"><rdf:RDF><cc:Work
       rdf:about=""><dc:format>image/svg+xml</dc:format><dc:type
         rdf:resource="http://purl.org/dc/dcmitype/StillImage" /><dc:title /></cc:Work></rdf:RDF></metadata><sodipodi:namedview
   pagecolor="#ffffff"
   bordercolor="#666666"
   borderopacity="1"
   objecttolerance="10"
   gridtolerance="10"
   guidetolerance="10"
   inkscape:pageopacity="0"
   inkscape:pageshadow="2"
   inkscape:window-width="3840"
   inkscape:window-height="2051"
   id="namedview49"
   showgrid="false"
   inkscape:zoom="3.1764901"
   inkscape:cx="266.15263"
   inkscape:cy="187.91372"
   inkscape:window-x="7680"
   inkscape:window-y="40"
   inkscape:window-maximized="0"
   inkscape:current-layer="svg47"
   inkscape:document-rotation="0" />
 <defs
   id="defs9">
  <style
   type="text/css"
   id="style2">
    .fil9 {fill:black}
    .fil3 {fill:#1A1A1A}
    .fil14 {fill:#4A4949}
    .fil1 {fill:#4D4D4D}
    .fil6 {fill:#914313}
    .fil13 {fill:#A4ABAD}
    .fil8 {fill:#ACADB5}
    .fil4 {fill:#BFC0C8}
    .fil11 {fill:#CED3D5}
    .fil12 {fill:#E3E7E8}
    .fil10 {fill:#E6E6E6}
    .fil7 {fill:#EBBC96}
    .fil5 {fill:#FACAA3}
    .fil2 {fill:white}
    .fil0 {fill:url(#a)}
  </style>
  <linearGradient
   id="a"
   x1="644.34003"
   x2="10946"
   y1="8285.7002"
   y2="19400"
   gradientUnits="userSpaceOnUse">
   <stop
   stop-color="#ccc"
   offset="0"
   id="stop4" />
   <stop
   stop-color="#FAFAFA"
   offset="1"
   id="stop6" />
  </linearGradient>
 </defs>
   
   
   <path
   class="fil3"
   d="m 12928.046,5484.4853 c -66,1140 -112,2318 -272,3439 323,100 431,299 372,577 l -1259,-243 c 86,-83 61,-108 44,-129 -19,-24 -28,-42 -11,-66 18,-24 62,-55 115,-90 53,-35 115,-75 19,-96 -96,-21 -350,-23 -609,-35 -168,-8 -339,-19 -569,-50 12,0 24,-1 35,-2 128,-13 132,-62 137,-170 6,-108 13,-275 19,-520 7,-245 13,-567 56,-794 43,-227 123,-359 196,-509 72,-150 138,-318 158,-488 20,-169 -6,-341 -33,-518 -26,-176 -53,-357 -90,-487 -38,-130 -86,-209 -135,-309 -48,-99 -97,-218 -178,-388 -82,-169 -196,-390 -305,-541 -109,-151 -211,-233 -331,-318 556,41 1300,73 1861,281 260,97 437,203 557,328 261,269 252,621 223,1128 z"
   id="path17" /><path
   class="fil9"
   d="m 10352.046,3794.4853 c 140,16 293,41 449,69 323,58 656,133 910,245 255,113 431,263 529,570 98,308 118,773 97,1405 -21,632 -82,1430 -126,1919 -45,490 -71,671 6,773 72,95 235,122 439,146 v 2 c 323,100 431,299 372,577 l -1259,-243 c 86,-83 61,-108 44,-129 -19,-24 -28,-42 -11,-66 18,-24 62,-55 115,-90 53,-35 115,-75 19,-96 -96,-21 -350,-23 -609,-35 -168,-8 -339,-19 -569,-50 12,0 24,-1 35,-2 128,-13 132,-62 137,-170 6,-108 13,-275 19,-520 7,-245 13,-567 56,-794 43,-227 123,-359 196,-509 72,-150 138,-318 158,-488 20,-169 -6,-341 -33,-518 -26,-176 -53,-357 -90,-487 -38,-130 -86,-209 -135,-309 -48,-99 -97,-218 -178,-388 -82,-169 -196,-390 -305,-541 -89,-123 -173,-200 -266,-271 z"
   id="path29" /><path
   class="fil2"
   d="m 13159.046,9258.4853 c -96,-21 -350,-23 -609,-35 -259,-12 -525,-33 -1006,-117 -482,-84 -1181,-230 -1559.0009,-288 -378,-58 -436,-27 -606,48 -170,75 -451,194 -786,315 -335,120 -723,241 -1058,339 -335,98 -617,173 -795,215 -177,42 -250,51 -280,71 -29,20 -16,51 1,78 18,28 40,52 2,76 -39,24 -138,48.9997 -257,66.9997 -119,19 -258,32 -53,129 57,27 140,61 250,99 h 5743.0009 c 323,-239 639,-444.9997 787,-563.9997 154,-126 123,-156 103,-181 -19,-24 -28,-42 -11,-66 18,-24 62,-55 115,-90 53,-35 115,-75 19,-96 z"
   id="path15" />
   
   <path
   class="fil4"
   d="m 12228.046,7687.4853 c -43,227 -49,549 -56,794 -6,245 -13,412 -19,520 -5,108 -9,157 -137,170 -11,1 -23,2 -35,2 -125,-16 -268,-38 -437,-67 -482,-84 -1181,-230 -1559.0009,-288 -298,-45 -397,-36 -509,6 -30,7 -63,15 -105,22 -129,21 -341,32 -473,23 -132,-10 -184,-39 -216,-89 -32,-49 -44,-119 -160,-148 -116,-30 -336,-19 -463,-18 -127,1 -160,-8 -132,-57 27,-50 115,-140 189,-252 74,-111 134,-243 144,-350 10,-107 -30,-189 -76,-258 -47,-69 -100,-127 -161,-165 -62,-39 -133,-59 -326,-74 -193,-16 -508,-27 -709,-38 -200,-11 -286,-22 -330,-47 -44,-26 -47,-65 -58,-119 -11,-54 -30,-123 -72,-134 -42,-11 -106,36 -150,82 -44,46 -69,93 -118,108 -50,15 -125,0 -191,-1 -66,-1 -123,12 -182,60 -58,49 -118,133 -157,155 -40,22 -60,-18 -120,-49 -59,-31 -158,-53 -246,-75 -89,-22 -166,-44 -235,-77 -70,-33 -132,-77 -181,-150 -50,-72 -87,-174 -121,-276 -35,-103 -65,-207 -71,-259 -6,-53 12,-56 27,-103 15,-47 26,-140 54,-225 27,-85 71,-162 146,-223 74,-60 179,-104 251,-150 72,-46 112,-93 151,-144 38,-52 76,-107 142,-160 66,-54 161,-106 227,-185 66,-79 104,-186 174,-315 71,-129 174,-280 287,-401 112,-122 233,-213 335,-306 101,-94 183,-188 290,-259 107,-72 239,-119 338,-136 99,-17 166,-4 193,-7 18,-1 20,-10 15,-22 39,34 62,57 91,76 48,34 114,59 188,74 74,15 156,19 197,109 41,90 42,265 66,409 23,144 68,256 97,428 29,171 43,402 50,557 7,154 8,234 27,226 19,-9 55,-105 101,-213 47,-108 103,-228 177,-338 75,-109 167,-208 220,-285 53,-76 66,-129 62,-189 -3,-61 -24,-129 -39,-190 -14,-60 -22,-113 6,-171 27,-57 90,-119 167,-196 78,-78 169,-172 305,-320 135,-147 315,-349 421,-471 106,-123 138,-166 151,-207 13,-40 8,-79 -4,-153 -11,-73 -28,-180 -38,-263 9,16 23,17 51,21 42,5 113,17 160,42 46,25 67,63 107,154 39,92 98.0009,237 135.0009,321 38,84 54,106 140,137 86,32 242,72 402,125 161,52 326,116 477,193 151,76 288,166 407,251 120,85 222,167 331,318 109,151 223,372 305,541 81,170 130,289 178,388 49,100 97,179 135,309 37,130 64,311 90,487 27,177 53,349 33,518 -20,170 -86,338 -158,488 -73,150 -153,282 -196,509 z"
   id="path19"
   style="fill:#313661;fill-opacity:1" />
   <path
   class="fil5"
   d="m 9522.0451,3508.4853 c -106,122 -286,324 -421,471 -136,148 -227,242 -305,320 -77,77 -140,139 -167,196 -28,58 -20,111 -6,171 15,61 36,129 39,190 4,60 -9,113 -62,189 -53,77 -145,176 -220,285 -74,110 -130,230 -177,338 -46,108 -82,204 -101,213 -19,8 -20,-72 -27,-226 -7,-155 -21,-386 -50,-557 -29,-172 -74,-284 -97,-428 -24,-144 -25,-319 -66,-409 -41,-90 -123,-94 -197,-109 -74,-15 -140,-40 -188,-74 -29,-19 -52,-42 -91,-76 -2,-7 -7,-15 -12,-25 -14,-25 -30,-57 -63,-143 -32,-86 -81,-226 -124,-389 -43,-163 -80,-350 -106,-485 -26,-135 -41,-218 -47,-316 -7,-98 -6,-209 -11,-287 -6,-78 -18,-124 -37,-160 -18,-36 -44,-64 -59,-103 -14,-39 -19,-90 -21,-145 -1,-54 0,-113 3,-223 2,-111 7,-274 23,-411 17,-137 46,-247 61,-320.99996 15,-75 18,-113 -2,-149 -19,-35 -60,-67 -51,-129 8,-62 65,-155 209,-259 144,-103 374,-218 604,-301 230,-82.999996 459,-134.999996 642,-150.9999972 182,-16.0000028 318,4 441,47.0000012 124,44 235,110.999996 334,164.999996 98,54 184,95 275,190 90,96 185,245 244,395 59,149 82,297.99996 83,480.99996 0,183 -22,400 -31,521 -8,120 -4,144 7,165 11,20 29,38 24,103 -4,65 -31,177 -62,275 -31,97 -68,180 -84,270 -16,90 -11,187 -4,235 3,15 5,25 9,33 10,83 27,190 38,263 12,74 17,113 4,153 -13,41 -45,84 -151,207 z"
   id="path21" />
   <path
   class="fil6"
   d="m 7000.0451,864.48534 c 113,-49 188,-109 302,-147 138,-46 334,-59 490,-48 155,11 270,46 390,48 120,1 246,-32 282,-3 37,30 -16,123 -42,232 -25,108.99996 -23,234.99996 -8,242.99996 14,9 40,-99 80,-176 40,-76.99996 93,-122.99996 115,-75.99996 22,47 13,188.99996 18,299.99996 6,111 26,193 -13,266 -38,72 -135,136 -111,197 24,61 170,118 257,238 87,120 115,303 114,512 -1,208 -32,442 -99,586 -67,144 -171,200 -281,228 -110,29 -227,31 -346,6 -119,-26 -240,-79 -360,-107 -119,-29 -235,-33 -324,-35 -67,-2 -313,19 -334,76 8,34 31,143 57,241 26,98 92,303 124,389 33,86 49,118 63,143 5,10 10,18 12,25 39,34 62,57 91,76 48,34 114,59 188,74 42,8 87,13 125,33 18,4 47,4 102,-21 55,-26 183,-105 369,-186 187,-81 412,-182 559,-286 148,-104 219,-209 254,-338 35,-129 35,-282 16,-415 -18,-133 -56,-248 -38,-397 17,-149 90,-332 154,-438 64,-105 119,-134 187,-152 67,-17 146,-24 207,-19 44,3 79,12 144,26 -8,-20 -10,-53 -3,-155 9,-121 31,-338 31,-521 -1,-183 -24,-331.99996 -83,-480.99996 -59,-150 -154,-299 -244,-395 -91,-95 -177,-136 -275,-190 -99,-54 -210,-120.999996 -334,-164.999996 -123,-43.0000012 -259,-63.000004 -441,-47.0000012 -183,16.0000012 -412,68.0000012 -642,150.9999972 -230,83 -460,198 -604,301 -144,104 -201,197 -209,259 -9,62 32,94 51,129 4,7 6,13 9,19 z m 1046,2598.99996 c -16,-42 -44,-94 -130,-136 -86,-43 -230,-76 -336,-91 -107,-16 -175,-14 -228,2 -53,15 -91,44 -107,93 -17,49 -12,118 9,201 22,82 60,177 126,237 66,60 158,85 266,72 107,-12 230,-63 303,-114 74,-52 100,-103 110,-146 9,-42 4,-75 -13,-118 z"
   id="path23"
   style="fill:#000000;fill-opacity:1" />
   <path
   class="fil7"
   d="m 9669.0451,3148.4853 c 12,74 17,113 4,153 -13,41 -45,84 -151,207 -106,122 -286,324 -421,471 -136,148 -227,242 -305,320 -77,77 -140,139 -167,196 -28,58 -20,111 -6,171 15,61 36,129 39,190 4,60 -9,113 -62,189 -53,77 -145,176 -220,285 -74,110 -130,230 -177,338 -46,108 -82,204 -101,213 -19,8 -20,-72 -27,-226 -7,-155 -21,-386 -50,-557 -29,-172 -74,-284 -97,-428 -24,-144 -25,-319 -66,-409 -18,-39 -43,-62 -72,-76 18,4 47,4 102,-21 18,-9 45,-24 80,-43 6,7 12,13 18,20 71,85 120,212 163,317 43,105 79,189 71,244 -7,54 -59,80 -81,198 -22,118 -14,328 -6,457 8,129 17,177 68,134 50,-42 143,-175 220,-286 76,-111 137,-202 147,-307 10,-105 -31,-225 -61,-306 -30,-80 -48,-121 75,-257 122,-136 387,-368 546,-564 159,-196 211,-357 221,-483 10,-126 -23,-216 -66,-293 -43,-77 -96,-141 -84,-161 13,-20 90,4 155,-10 65,-15 118,-67 160,-108 35,-34 63,-59 116,-136 -3,12 -6,25 -8,37 -16,90 -11,187 -4,235 3,15 5,25 9,33 10,83 27,190 38,263 z"
   id="path25" />
   <path
   class="fil8"
   d="m 7571.0451,4126.4853 c -5,32 -7,70 -4,110 7,106 47,233 81,329 35,97 65,163 39,214 -26,51 -108,88 -138,140 -30,52 -9,121 49,221 58,100 152,233 219,343 66,110 103,198 126,299 23,101 32,215 67,328 35,114 95,227 128,351 33,124 39,259 30,399 -10,141 -34,288 -49,391 -15,103 -20,162 18,204 38,41 119,64 247,92 128,27 302,59 423,89 121,30 188,57 155,43 -33,-14 -167,-71 -277,-111 -110,-40 -197,-64 -276,-97 -79,-32 -149,-73 -101,-158 48,-84 214,-212 385,-360 171,-148 346,-317 307,-305 -39,11 -293,203 -456,308 -163,104 -236,122 -267,74 -31,-49 -20,-164 2,-279 23,-116 56,-233 145,-366 89,-134 235,-284 212,-304 -24,-19 -215,91 -334,105 -120,15 -166,-67 -145,-197 21,-130 109,-309 207,-393 98,-83 207,-72 355,-172 149,-99 339,-308 472,-453 134,-144 211,-223 323,-365 112,-142 258,-346 362,-504 103,-159 164.0009,-273 154.0009,-271 -11,2 -92.0009,118 -214.0009,286 -122,168 -284,386 -383,500 -99,115 -134,126 -181,86 -46,-39 -105,-130 -157,-198 -53,-68 -99,-115 -134,-144 -34,-30 -58,-43 -85,-38 -27,5 -57,28 -83,65 -26,37 -47,87 -65,140 -19,52 -34,106 -21,186 13,80 55,186 22,283 -33,98 -141,187 -242,317 -102,129 -197,299 -259,408 -62,109 -92,158 -108,174 -7,8 -11,8 -14,-18 -2,1 -3,2 -4,3 -19,8 -20,-72 -27,-226 -7,-155 -21,-386 -50,-557 -29,-172 -74,-284 -97,-428 -24,-144 -25,-319 -66,-409 -41,-90 -123,-94 -197,-109 -33,-7 -65,-16 -94,-26 z m 3374.0009,401 c -29,4 -221,179 -326,376 -104,197 -122,418 -132,626 -10,208 -12,405 -41,573 -28,169 -84,310 -116,458 -32,148 -40,302 -89,418 -48,115 -137,193 -208,307 -72.0009,115 -127.0009,267 -168.0009,359 -41,91 -67,122 -120,129 -53,6 -132,-11 -164,-9 -32,2 -17,24 38,59 56,36 150,84 262,103 111,19 239.0009,8 359.0009,15 120,8 233,34 333,13 100,-20 189,-89 179,-101 -10,-12 -118,32 -219,45 -100,13 -193,-4 -219,-82 -27,-79 13,-218 83,-359 69,-141 168,-284 221,-418 53,-133 60,-256 12,-248 -47,9 -149,150 -203,148 -54,-2 -60,-148 -14,-353 46,-205 146,-469 303,-726 158,-257 374,-506 506,-666 133,-160 181,-230 145,-223 -37,8 -158,94 -271,199 -114,104 -220,228 -310,369 -91,141 -166,300 -196,271 -31,-28 -18,-244 4,-401 22,-157 53,-254 73,-336 20,-83 28,-151 100,-268 72,-117 206,-282 178,-278 z m -2917.0009,3898 c 14,35 16,63 41,83 44,35 162,47 340,51 178,4 417,0 609,20 193,21 341,68 435,89 95,22 135,18 138,-32 3,-51 -32,-149 -82,-242 -50,-93 -114,-182 -103,-196 10,-14 95,45 143,32 48,-13 59,-99 115,-45 57,54 158,248 241,365 83,117 146.0009,156 179.0009,110 32,-46 34,-179 69,-187 36,-9 107,105 235,183 129,77 315,116 422,121 108,5 137,-24 137,-100 0,-75 -29,-197 5,-165 33,31 129,215 227,321 97,106 196,133 290,138 93,5 180,-12 196,-137 16,-124 -39,-356 -16,-398 24,-42 127,106 196,220 68,113 104,192 120,186 16,-7 12,-99 -31,-199 -44,-99 -127,-205 -199,-290 -72,-84 -131,-148 -84,-129 47,19 202,122 298,206 97,83 135,148 147,135 13,-14 -2,-107 -103,-212 -100,-105 -288,-223 -470,-305 -182,-83 -358,-129 -473,-161 -114,-32 -167,-49 -87,-67 80,-18 292,-35 490,26 197,62 379,203 486,297 108,94 141,140 164,58 23,-81 36,-291 43,-484 7,-193 7,-369 -41,-522 -47,-153 -142,-284 -109,-331 33,-47 194,-12 311,-12 99,1 165,-24 265,-92 -28,146 -86,288 -148,418 -73,150 -153,282 -196,509 -43,227 -49,549 -56,794 -6,245 -13,412 -19,520 -5,108 -9,157 -137,170 -11,1 -23,2 -35,2 -125,-16 -268,-38 -437,-67 -482,-84 -1181,-230 -1559.0009,-288 -298,-45 -397,-36 -509,6 -30,7 -63,15 -105,22 -129,21 -341,32 -473,23 -132,-10 -184,-39 -216,-89 -32,-49 -44,-119 -160,-148 -116,-30 -336,-19 -463,-18 -127,1 -160,-8 -132,-57 17,-30 56,-76 101,-132 z m -1598,-3277 c -19,37 -39,154 -57,248 -19,93 -37,164 -21,260 15,96 64,217 88,313 24,96 24,166 -19,108 -43,-59 -129,-246 -182,-460 -53,-214 -73,-454 -108,-504 -35,-49 -86,92 -84,268 3,177 58,388 130,574 73,185 164,343 136,388 -28,44 -173,-27 -287,-124 -113,-97 -195,-220 -223,-196 -29,24 -5,196 91,344 96,148 264,271 244,334 -20,63 -227,65 -324,139 -97,74 -84,219 -78,327 7,108 7,179 -34,182 -41,3 -122,-61 -216,-216 -94,-155 -199,-402 -219,-609 -20,-206 46,-371 19,-423 -28,-52 -149,10 -192,117 -43,107 -8,259 59,445 68,187 167,407 173,445 7,37 -79,-108 -141,-202 -62,-94 -99,-136 -90,-66 9,69 64,250 47,312 -16,62 -104,4 -206,-116 -34,-41 -70,-88 -106,-130 33,99 70,197 118,267 49,73 111,117 181,150 69,33 146,55 235,77 88,22 187,44 246,75 60,31 80,71 120,49 39,-22 99,-106 157,-155 59,-48 116,-61 182,-60 66,1 141,16 191,1 49,-15 74,-62 118,-108 44,-46 108,-93 150,-82 10,3 19,9 27,18 -3,-37 -8,-78 -11,-127 -13,-176 -10,-461 -18,-745 -7,-285 -24,-569 -33,-748 -9,-179 -9,-251 -18,-309 -9,-57 -26,-99 -45,-61 z m 3448,-2173 c -3,19 -9,38 -18,60 -22,57 -58,134 -98,196 -41,63 -86,111 -133,153 -4,3 -8,7 -12,10 33,-43 48,-68 56,-93 13,-40 8,-79 -4,-153 -11,-73 -28,-180 -38,-263 9,16 23,17 51,21 42,5 113,17 160,42 14,8 25,16 36,27 z"
   id="path27"
   style="fill:#5d5f76;fill-opacity:1" />
   
   <path
   class="fil10"
   d="m 6956.0451,9884.4853 c 218,46 584,157.9997 908,230.9997 291,66 549,99 938,140 h -2110 c -33,-12 -56,-23 -68,-32 -63,-46 153,-51 312,-54 159,-3 260,-5 235,-37 -26,-32 -178,-94 -295,-141.9997 -117,-47 -198,-80 -204,-106 -5,-27 65,-47 284,0 z m 4354.0009,370.9997 c 123,-36 240,-79 360,-129 328,-136.9997 677,-321.9997 925,-458.9997 230,-126 374,-211 497,-280 -31,22 -55,41 -67,57 -15,21 -11,37 3,56 -28,18 -57,37 -89,56 -241,154 -580,353 -969,598.9997 -51,33 -103,66 -157,100 z"
   id="path31" />
   <path
   class="fil11"
   d="m 8545.0451,8671.4853 -277,-57 c -76,0 -152,2 -209,3 -127,1 -160,-8 -132,-58 2,-4 5,-9 9,-14 l -2875,-585 -1,-3 -274,-1189 -291,-1346 c -34,-132 -76,-231 -181,-254 l -4180.99999,-529 c -61.999997,-13 -133.99999726,30 -132.99999726,83 0,4 0,8 0.99999996,12 l 1050.9999873,3609 c 56,148 80,159 168,188 l 3811,1069 398,98 c 82,20 77,26 159,7 l 2986,-722 c 37,-11 46,-13 47,-84 v -145 c 0,-48 -17,-69 -76,-83 z"
   id="path33" />
   <path
   class="fil12"
   d="m 4748.0451,6589.4853 c -1155,670 -2403,1168 -3803.99999,1378 l -942.9999973,-3236 c -11,-57 67.0000003,-106 131.9999973,-92 l 4180.99999,529 c 105,23 147,122 181,254 z"
   id="path35" />
   <path
   class="fil13"
   d="m 8244.0451,8802.4853 c -343,89 -940,244 -1374,348 -435,104 -707,155 -905,191 -199,35 -323,54 -417,66 -41,6 -76,10 -118,-9 l -369,-1438 2875,585 c -4,5 -7,10 -9,14 -28,50 5,59 132,58 57,-1 133,-3 209,-3 l 277,57 c 31,7 51,17 63,32 -79,25 -188,53 -364,99 z"
   id="path37" />
   <path
   class="fil5"
   d="m 8028.0451,8425.4853 c -17,21 -33,41 -48,59 15,-18 31,-38 48,-59 z m 232,-470 c -10,107 -70,239 -144,350 -28,44 -59,84 -88,120 4,10 7,19 9,27 -18,12 -37,23 -57,32 -18,9 -36,16 -54,23 -115,42 -240,49 -348,50 -109,0 -200,-7 -260,-3 -59,3 -87,16 -141,65 -55,48 -136,132 -228,201 -92,70 -195,125 -279,152 -84,28 -149,28 -197,10 -48,-18 -78,-55 -83,-93 -5,-38 16,-77 78,-129 62,-52 166,-116 245,-180 78,-64 133,-128 158,-166 25,-39 22,-52 0,-51 -21,1 -61,16 -141,79 -81,62 -202,171 -317,275 -114,104 -222,204 -302,263 -79,59 -130,77 -186,80 -56,3 -118,-10 -147,-45 -29,-34 -26,-89 35,-172 60,-83 178,-195 279,-296 101,-100 185,-191 223,-240 39,-50 32,-59 -2,-58 -34,0 -96,10 -169,60 -74,49 -158,139 -247,236 -89,97 -181,201 -251,255 -69,55 -116,58 -159,41 -44,-17 -85,-55 -94,-108 -9,-54 13,-123 44,-188 32,-65 72,-126 73,-160 2,-33 -37,-40 -73,-61 -36,-21 -69,-56 -80,-93 -11,-38 0,-78 35,-112 35,-35 93,-65 125,-85 32,-20 38,-29 -26,-42 -63,-12 -196,-26 -286,-43 -77,-14 -124,-29 -166,-85 l -200,-869 c 2,-14 4,-28 7,-41 29,82 62,160 102,219 49,73 111,117 181,150 69,33 146,55 235,77 88,22 187,44 246,75 60,31 80,71 120,49 39,-22 99,-106 157,-155 59,-48 116,-61 182,-60 26,0 54,3 81,5 95,33 145,49 218,59 67,10 153,14 326,15 52,15 138,24 294,32 201,11 516,22 709,38 193,15 264,35 326,74 61,38 114,96 161,165 46,69 86,151 76,258 z"
   id="path39" />
   <path
   class="fil14"
   d="m 6597.0451,9293.4853 -172,36 10,109 173,-38 z m 567,-123 -172,37 10,109 174,-38 z m -284,64 -172,36 10,110 174,-38 z"
   id="path41" />
   <path
   class="fil7"
   d="m 6468.0451,7579.4853 c 2,-9 -22,7 -74,16 -52,10 -134,12 -230,71 -96,59 -206,175 -284,239 -77,65 -123,78 -165,76 -41,-1 -80,-18 -90,-73 -11,-55 7,-149 16,-212 9,-64 11,-97 -34,-126 -45,-29 -135,-54 -214,-68 -79,-13 -146,-14 -217,-46 -70,-32 -144,-95 -210,-190 -38,-55 -73,-120 -100,-152 l 173,750 c 42,56 89,71 166,85 90,17 223,31 286,43 64,13 58,22 26,42 -32,20 -90,50 -125,85 -35,34 -46,74 -35,112 11,37 44,72 80,93 32,19 65,26 72,50 7,-4 14,-9 22,-15 70,-53 165,-152 261,-252 97,-100 195,-201 269,-253 74,-51 124,-52 179,-76 54,-24 114,-72 157,-113 43,-41 69,-77 71,-86 z"
   id="path43" />
   <path
   class="fil7"
   d="m 8028.0451,8425.4853 c -17,21 -33,41 -48,59 15,-18 31,-38 48,-59 z m -2637,273 c 30,27 43,51 70,58 44,12 123,-18 245,-121 123,-102 289,-277 437,-393 148,-117 277,-176 375,-213 98,-37 164,-53 150,-24 -14,30 -108,105 -192,177 -67,56 -127,111 -214,187 22,-25 40,-46 53,-62 39,-50 32,-59 -2,-58 -34,0 -96,10 -169,60 -74,49 -158,139 -247,236 -89,97 -181,201 -251,255 -69,55 -116,58 -159,41 -44,-17 -85,-55 -94,-108 -2,-11 -2,-23 -2,-35 z m 376,229 5,4 c 34,27 73,59 133,55 61,-4 142,-44 284,-156 142,-112 343,-296 494,-420 150,-125 250,-190 337,-241 88,-52 164,-89 157,-52 -7,37 -98,148 -182,232 -84,83 -162,139 -272,223 l -6,4 c 77,-63 129,-125 154,-162 25,-39 22,-52 0,-51 -21,1 -61,16 -141,79 -81,62 -202,171 -317,275 -114,104 -222,204 -302,263 -79,59 -130,77 -186,80 -56,3 -118,-10 -147,-45 -18,-21 -24,-50 -11,-88 z m 894,-308 c -94,74 -199,160 -267,231 9,-27 32,-56 74,-90 49,-41 125,-90 193,-141 z m -180,365 2,-1 c 82,-28 173,-54 306,-135 121,-74 278,-195 439,-269 -15,9 -32,22 -51,40 -55,48 -136,132 -228,201 -92,70 -195,125 -279,152 -79,27 -142,28 -189,12 z m 789,-424 h 2 c 176,-72 355,-80 486,-114 131,-34 215,-95 262,-188 47,-93 57,-219 54,-330 -3,-112 -18,-209 -46,-279 -27,-69 -65,-113 -153,-170 69,13 110,29 148,53 61,38 114,96 161,165 46,69 86,151 76,258 -10,107 -70,239 -144,350 -28,44 -59,84 -88,120 4,10 7,19 9,27 -18,12 -37,23 -57,32 -18,9 -36,16 -54,23 -115,42 -240,49 -348,50 -109,0 -200,-7 -260,-3 -18,1 -34,3 -48,6 z"
   id="path45" />
</svg>
